<svg width="17" height="9" viewBox="0 0 17 9" fill="none" xmlns="http://www.w3.org/2000/svg">
<path d="M4.35601 8.664C1.71601 8.664 8.06898e-06 6.9 8.06898e-06 4.344C8.06898e-06 1.776 1.71601 -2.6226e-06 4.35601 -2.6226e-06C6.68401 -2.6226e-06 8.22001 1.416 8.49601 3.54H6.21601C6.00001 2.628 5.30401 2.052 4.34401 2.052C3.04801 2.052 2.24401 2.988 2.24401 4.344C2.24401 5.676 3.04801 6.612 4.34401 6.612C5.34001 6.612 6.03601 5.976 6.21601 5.004H8.49601C8.26801 7.176 6.70801 8.664 4.35601 8.664ZM9.38148 8.532V0.131997H11.6255V3.336H14.5775V0.131997H16.8215V8.532H14.5775V5.388H11.6255V8.532H9.38148Z" fill="white"/>
</svg>
