<svg width="17" height="9" viewBox="0 0 17 9" fill="none" xmlns="http://www.w3.org/2000/svg">
<path d="M4.356 8.664C1.716 8.664 -3.72529e-08 6.9 -3.72529e-08 4.344C-3.72529e-08 1.776 1.716 -2.6226e-06 4.356 -2.6226e-06C6.684 -2.6226e-06 8.22 1.416 8.496 3.54H6.216C6 2.628 5.304 2.052 4.344 2.052C3.048 2.052 2.244 2.988 2.244 4.344C2.244 5.676 3.048 6.612 4.344 6.612C5.34 6.612 6.036 5.976 6.216 5.004H8.496C8.268 7.176 6.708 8.664 4.356 8.664Z" fill="white"/>
<path d="M9.38147 8.532V0.131997H11.6255V3.336H14.5775V0.131997H16.8215V8.532H14.5775V5.388H11.6255V8.532H9.38147Z" fill="#24BFB5"/>
</svg>
